# xmcd CD database file
#
# Track frame offsets:
#	150
#	11100
#	29404
#	45969
#	60161
#	62696
#	76055
#	91354
#	113532
#	133000
#	155166
#	182434
#
# Disc length: 2642 seconds
#
# Revision: 1
# Processed by: cddbd v1.5.1PL0 Copyright (c) Steve Scherf et al.
# Submitted via: CDex 1.51
#
DISCID=890a500c
DTITLE=CORNER - 走るナマケモノ
DYEAR=2003
DGENRE=JPop
TTITLE0=あいさつ
TTITLE1=霧の浮舟
TTITLE2=マグカップの相談
TTITLE3=755℃
TTITLE4=trente un
TTITLE5=十七歳の虹
TTITLE6=ゼロ G
TTITLE7=ビルの屋上で
TTITLE8=気分屋ブブン
TTITLE9=AD HOC HOLISM (SLIGHTLY CHANGED VERSION)
TTITLE10=走るナマケモノ
TTITLE11=Walk
EXTD=YEAR: 2003
EXTT0=
EXTT1=
EXTT2=
EXTT3=
EXTT4=
EXTT5=
EXTT6=
EXTT7=
EXTT8=
EXTT9=
EXTT10=
EXTT11=
PLAYORDER=
